<?xml version="1.0" standalone="no"?>
<!DOCTYPE svg PUBLIC "-//W3C//DTD SVG 20010904//EN"
 "http://www.w3.org/TR/2001/REC-SVG-20010904/DTD/svg10.dtd">
<svg version="1.0" xmlns="http://www.w3.org/2000/svg"
 width="300.000000pt" height="67.000000pt" viewBox="0 0 300.000000 67.000000"
 preserveAspectRatio="xMidYMid meet">
<g transform="translate(0.000000,67.000000) scale(0.100000,-0.100000)"
fill="##90EE90" stroke="none">
<path d="M0 640 c0 -17 6 -20 50 -20 28 0 51 -3 51 -7 3 -20 7 -104 8 -159 1
-45 6 -68 20 -85 l19 -24 34 25 c18 13 41 34 51 47 10 13 24 29 30 36 7 6 36
42 66 80 29 37 61 72 71 77 26 14 70 12 70 -3 0 -7 -36 -57 -81 -112 -72 -88
-80 -103 -76 -131 3 -18 39 -83 79 -145 41 -63 89 -138 108 -166 24 -39 40
-53 56 -53 21 0 15 13 -64 133 -118 177 -152 232 -152 242 0 7 47 65 188 233
l44 52 -93 0 -94 0 -100 -122 c-55 -66 -107 -132 -115 -145 -8 -12 -18 -23
-23 -23 -5 0 -7 64 -6 143 l2 142 -71 3 c-67 3 -72 1 -72 -18z"/>
<path d="M839 646 c-186 -50 -289 -236 -234 -424 29 -95 119 -183 218 -210 53
-15 44 5 -17 39 -123 68 -181 165 -174 294 2 42 12 86 23 110 44 91 160 165
257 165 58 0 142 -29 183 -63 41 -33 43 -44 13 -56 -18 -7 -35 -2 -74 20 -89
50 -198 37 -273 -34 -146 -139 -47 -386 155 -387 66 0 113 20 153 65 36 41 37
46 14 74 -13 15 -34 23 -71 28 -50 6 -53 7 -50 32 3 26 3 26 106 29 l102 3 0
-85 0 -84 -56 -51 c-30 -28 -61 -51 -68 -51 -6 0 -27 -14 -46 -30 l-35 -30 30
6 c55 12 116 48 161 96 l44 47 0 111 0 110 -140 0 -140 0 0 -70 0 -70 75 0
c89 0 97 -14 35 -59 -73 -53 -168 -49 -236 11 -84 74 -93 183 -21 265 77 88
197 95 278 17 l27 -25 56 36 56 36 -20 27 c-46 62 -173 123 -255 121 -16 0
-51 -6 -76 -13z"/>
<path d="M1210 330 l0 -330 21 0 c22 0 22 2 14 98 -8 105 -8 178 -1 372 3 69
5 131 6 138 0 11 36 13 174 10 159 -3 177 -5 203 -24 69 -52 90 -125 59 -213
-14 -39 -14 -43 14 -104 26 -57 27 -68 18 -110 -8 -38 -21 -59 -66 -102 -30
-30 -53 -57 -50 -61 10 -10 85 34 111 66 54 63 57 180 7 243 -19 24 -19 25 0
63 53 103 -12 240 -131 274 -19 6 -112 10 -206 10 l-173 0 0 -330z"/>
<path d="M2214 651 c-2 -2 -4 -95 -4 -206 0 -193 -1 -203 -23 -236 -63 -94
-203 -89 -260 9 -16 28 -18 55 -17 232 l1 200 -73 0 -73 0 5 -227 c5 -212 7
-231 27 -270 39 -72 106 -127 183 -148 27 -7 14 6 -91 95 -23 19 -53 57 -65
85 -22 46 -23 62 -23 226 0 191 6 218 47 205 21 -7 22 -11 22 -182 0 -157 2
-179 21 -220 42 -88 149 -133 231 -96 56 25 80 48 107 99 19 38 21 58 21 218
0 153 2 176 16 182 9 3 24 2 33 -4 14 -9 16 -35 16 -189 -1 -117 -5 -195 -14
-224 -13 -45 -56 -93 -145 -164 -20 -16 -35 -31 -32 -33 10 -10 103 40 140 75
21 20 49 60 62 87 23 48 24 60 24 267 l0 216 -66 4 c-36 1 -68 1 -70 -1z"/>
<path d="M2363 653 c11 -18 202 -330 218 -358 16 -25 19 -51 19 -162 0 -112 2
-133 15 -133 16 0 18 30 15 205 l-1 79 -95 157 c-52 86 -94 162 -94 168 0 6
13 11 30 11 32 0 36 -4 110 -122 63 -100 78 -108 125 -67 19 17 35 35 35 40 0
4 20 40 45 79 42 64 49 70 80 70 19 0 35 -3 35 -8 0 -4 -40 -73 -89 -154 -48
-80 -93 -161 -100 -178 -6 -18 -11 -89 -11 -156 0 -117 1 -124 20 -124 19 0
20 7 20 136 l0 135 115 189 c63 103 115 191 115 194 0 4 -37 6 -81 4 l-82 -3
-66 -112 c-36 -62 -69 -112 -73 -113 -3 0 -37 52 -74 115 l-67 115 -84 0 c-46
0 -82 -3 -80 -7z"/>
<path d="M1342 534 c-31 -22 -32 -119 -1 -153 20 -21 28 -23 125 -19 98 3 104
4 133 32 42 41 41 78 -3 122 l-34 34 -99 0 c-73 0 -104 -4 -121 -16z m245 -50
c15 -24 15 -29 2 -53 -14 -25 -17 -26 -127 -29 l-112 -3 0 56 0 55 110 0 c107
0 110 -1 127 -26z"/>
<path d="M1340 270 c-15 -15 -20 -33 -20 -76 0 -84 16 -93 154 -94 l108 0 35
35 c30 30 35 40 29 68 -3 17 -20 44 -36 60 -29 26 -34 27 -140 27 -97 0 -112
-2 -130 -20z m259 -34 c17 -18 18 -64 0 -81 -10 -10 -49 -14 -129 -16 l-115
-3 -3 48 c-2 27 -1 54 2 61 7 18 225 10 245 -9z"/>
<path d="M184 244 c-61 -62 -74 -91 -74 -171 0 -58 3 -73 15 -73 12 0 15 14
15 69 0 67 1 71 46 125 25 31 49 56 53 56 4 0 35 -44 69 -97 75 -118 108 -160
117 -151 10 10 -11 65 -37 98 -13 15 -38 54 -57 85 -35 57 -73 95 -97 95 -7 0
-30 -16 -50 -36z"/>
</g>
</svg>
